<svg xmlns="http://www.w3.org/2000/svg" viewBox="0 0 1145 1145" width="1145" height="1145" role="img" aria-label="stock Chain logo">
  <rect width="1145" height="1145" fill="#ffffff"/>
  <g fill-rule="evenodd" transform="translate(70 274)">
    <path fill="#000000" d="M 457.0 150.0 L 438.0 151.0 L 434.0 153.0 L 427.0 154.0 L 415.0 161.0 L 400.0 178.0 L 393.0 193.0 L 393.0 197.0 L 391.0 200.0 L 392.0 202.0 L 390.0 206.0 L 389.0 230.0 L 391.0 242.0 L 397.0 257.0 L 408.0 272.0 L 415.0 278.0 L 426.0 283.0 L 439.0 286.0 L 453.0 285.0 L 465.0 281.0 L 471.0 278.0 L 482.0 267.0 L 488.0 258.0 L 494.0 245.0 L 499.0 225.0 L 499.0 214.0 L 500.0 213.0 L 499.0 197.0 L 497.0 187.0 L 493.0 177.0 L 488.0 169.0 L 479.0 160.0 L 467.0 153.0 Z M 717.0 50.0 L 707.0 51.0 L 703.0 55.0 L 700.0 64.0 L 699.0 81.0 L 698.0 82.0 L 697.0 163.0 L 696.0 164.0 L 697.0 171.0 L 696.0 172.0 L 696.0 206.0 L 695.0 207.0 L 695.0 296.0 L 697.0 300.0 L 702.0 305.0 L 711.0 306.0 L 715.0 304.0 L 720.0 297.0 L 721.0 291.0 L 720.0 254.0 L 740.0 234.0 L 742.0 234.0 L 760.0 252.0 L 779.0 275.0 L 790.0 285.0 L 794.0 287.0 L 803.0 287.0 L 809.0 283.0 L 811.0 278.0 L 811.0 272.0 L 807.0 265.0 L 761.0 215.0 L 761.0 213.0 L 805.0 166.0 L 807.0 162.0 L 807.0 154.0 L 804.0 149.0 L 799.0 146.0 L 789.0 147.0 L 785.0 150.0 L 725.0 212.0 L 722.0 214.0 L 720.0 213.0 L 721.0 182.0 L 722.0 181.0 L 722.0 145.0 L 723.0 144.0 L 723.0 99.0 L 724.0 98.0 L 723.0 90.0 L 725.0 81.0 L 724.0 79.0 L 726.0 77.0 L 727.0 64.0 L 724.0 55.0 Z M 316.0 306.0 L 311.0 311.0 L 309.0 317.0 L 307.0 421.0 L 306.0 422.0 L 305.0 469.0 L 304.0 470.0 L 305.0 538.0 L 308.0 545.0 L 315.0 549.0 L 321.0 549.0 L 327.0 546.0 L 330.0 539.0 L 330.0 498.0 L 332.0 490.0 L 339.0 477.0 L 347.0 466.0 L 360.0 452.0 L 371.0 445.0 L 381.0 445.0 L 390.0 455.0 L 394.0 465.0 L 397.0 481.0 L 403.0 501.0 L 403.0 505.0 L 408.0 519.0 L 413.0 528.0 L 423.0 537.0 L 432.0 540.0 L 445.0 540.0 L 454.0 537.0 L 460.0 529.0 L 460.0 520.0 L 453.0 513.0 L 447.0 512.0 L 442.0 514.0 L 437.0 514.0 L 434.0 511.0 L 426.0 489.0 L 424.0 475.0 L 422.0 471.0 L 422.0 467.0 L 417.0 449.0 L 412.0 438.0 L 402.0 426.0 L 393.0 421.0 L 386.0 419.0 L 366.0 420.0 L 357.0 423.0 L 345.0 432.0 L 334.0 443.0 L 331.0 442.0 L 332.0 408.0 L 333.0 407.0 L 333.0 363.0 L 334.0 362.0 L 335.0 315.0 L 332.0 309.0 L 326.0 305.0 Z M 188.0 336.0 L 170.0 341.0 L 156.0 348.0 L 144.0 358.0 L 132.0 372.0 L 125.0 385.0 L 116.0 412.0 L 114.0 424.0 L 113.0 451.0 L 114.0 452.0 L 115.0 472.0 L 120.0 491.0 L 126.0 504.0 L 133.0 515.0 L 149.0 530.0 L 158.0 535.0 L 163.0 536.0 L 165.0 538.0 L 185.0 542.0 L 201.0 542.0 L 216.0 539.0 L 234.0 531.0 L 245.0 522.0 L 252.0 514.0 L 256.0 505.0 L 256.0 501.0 L 254.0 496.0 L 250.0 492.0 L 245.0 490.0 L 240.0 490.0 L 232.0 495.0 L 220.0 508.0 L 209.0 514.0 L 182.0 515.0 L 171.0 511.0 L 163.0 506.0 L 155.0 498.0 L 147.0 486.0 L 140.0 463.0 L 140.0 454.0 L 139.0 453.0 L 140.0 429.0 L 143.0 415.0 L 149.0 398.0 L 159.0 382.0 L 174.0 369.0 L 184.0 364.0 L 198.0 361.0 L 207.0 362.0 L 217.0 366.0 L 227.0 374.0 L 231.0 375.0 L 238.0 375.0 L 243.0 373.0 L 247.0 366.0 L 247.0 361.0 L 244.0 354.0 L 238.0 348.0 L 223.0 339.0 L 211.0 336.0 Z M 177.0 101.0 L 153.0 102.0 L 145.0 105.0 L 133.0 112.0 L 122.0 122.0 L 118.0 128.0 L 113.0 139.0 L 111.0 149.0 L 112.0 167.0 L 116.0 178.0 L 121.0 186.0 L 129.0 194.0 L 140.0 202.0 L 170.0 216.0 L 177.0 221.0 L 182.0 227.0 L 183.0 241.0 L 181.0 246.0 L 173.0 255.0 L 166.0 259.0 L 156.0 260.0 L 149.0 258.0 L 142.0 254.0 L 137.0 248.0 L 131.0 244.0 L 120.0 244.0 L 114.0 250.0 L 113.0 261.0 L 117.0 268.0 L 125.0 276.0 L 131.0 280.0 L 151.0 287.0 L 172.0 286.0 L 191.0 277.0 L 197.0 272.0 L 204.0 263.0 L 208.0 255.0 L 211.0 243.0 L 210.0 225.0 L 202.0 208.0 L 191.0 198.0 L 189.0 198.0 L 177.0 190.0 L 175.0 190.0 L 149.0 176.0 L 140.0 167.0 L 137.0 158.0 L 138.0 149.0 L 142.0 141.0 L 152.0 132.0 L 164.0 127.0 L 171.0 127.0 L 177.0 129.0 L 186.0 136.0 L 196.0 148.0 L 198.0 148.0 L 200.0 150.0 L 207.0 151.0 L 212.0 149.0 L 215.0 146.0 L 217.0 141.0 L 216.0 132.0 L 209.0 120.0 L 195.0 108.0 Z M 844.0 407.0 L 839.0 404.0 L 827.0 401.0 L 817.0 401.0 L 804.0 404.0 L 787.0 415.0 L 771.0 432.0 L 769.0 431.0 L 768.0 412.0 L 761.0 404.0 L 751.0 404.0 L 746.0 408.0 L 743.0 421.0 L 742.0 531.0 L 744.0 539.0 L 749.0 544.0 L 754.0 546.0 L 759.0 546.0 L 766.0 542.0 L 769.0 536.0 L 768.0 510.0 L 769.0 509.0 L 769.0 491.0 L 772.0 479.0 L 783.0 461.0 L 797.0 443.0 L 807.0 433.0 L 818.0 427.0 L 823.0 427.0 L 829.0 429.0 L 835.0 437.0 L 838.0 452.0 L 838.0 470.0 L 839.0 471.0 L 840.0 491.0 L 845.0 507.0 L 850.0 515.0 L 857.0 521.0 L 863.0 524.0 L 869.0 525.0 L 884.0 524.0 L 889.0 522.0 L 894.0 517.0 L 896.0 511.0 L 896.0 505.0 L 892.0 499.0 L 887.0 497.0 L 871.0 498.0 L 868.0 493.0 L 865.0 477.0 L 865.0 454.0 L 862.0 434.0 L 856.0 420.0 L 852.0 414.0 Z M 299.0 69.0 L 294.0 71.0 L 289.0 79.0 L 285.0 141.0 L 283.0 143.0 L 254.0 146.0 L 240.0 149.0 L 236.0 154.0 L 236.0 162.0 L 239.0 167.0 L 248.0 170.0 L 263.0 170.0 L 281.0 168.0 L 283.0 170.0 L 281.0 242.0 L 282.0 243.0 L 283.0 262.0 L 286.0 273.0 L 293.0 286.0 L 299.0 291.0 L 309.0 295.0 L 323.0 295.0 L 338.0 289.0 L 346.0 281.0 L 348.0 276.0 L 348.0 269.0 L 347.0 266.0 L 341.0 261.0 L 334.0 261.0 L 330.0 263.0 L 321.0 271.0 L 315.0 270.0 L 310.0 265.0 L 307.0 245.0 L 307.0 201.0 L 308.0 200.0 L 309.0 168.0 L 311.0 165.0 L 313.0 165.0 L 315.0 163.0 L 353.0 155.0 L 359.0 147.0 L 359.0 139.0 L 356.0 134.0 L 349.0 131.0 L 338.0 132.0 L 334.0 134.0 L 314.0 138.0 L 310.0 135.0 L 311.0 119.0 L 312.0 118.0 L 313.0 82.0 L 311.0 75.0 L 308.0 71.0 Z M 591.0 148.0 L 581.0 150.0 L 571.0 155.0 L 558.0 166.0 L 549.0 178.0 L 545.0 186.0 L 540.0 202.0 L 539.0 235.0 L 543.0 251.0 L 545.0 253.0 L 548.0 261.0 L 552.0 267.0 L 562.0 277.0 L 573.0 283.0 L 585.0 287.0 L 608.0 288.0 L 626.0 283.0 L 635.0 279.0 L 642.0 274.0 L 648.0 264.0 L 648.0 257.0 L 644.0 251.0 L 635.0 250.0 L 619.0 260.0 L 604.0 264.0 L 594.0 263.0 L 583.0 259.0 L 573.0 249.0 L 566.0 236.0 L 565.0 229.0 L 566.0 204.0 L 573.0 188.0 L 580.0 180.0 L 587.0 175.0 L 594.0 173.0 L 603.0 174.0 L 612.0 182.0 L 618.0 191.0 L 626.0 194.0 L 632.0 193.0 L 638.0 188.0 L 640.0 184.0 L 640.0 176.0 L 634.0 163.0 L 626.0 155.0 L 621.0 152.0 L 607.0 148.0 Z M 441.0 175.0 L 452.0 175.0 L 459.0 178.0 L 469.0 189.0 L 472.0 196.0 L 474.0 206.0 L 473.0 225.0 L 471.0 235.0 L 467.0 245.0 L 458.0 256.0 L 454.0 259.0 L 448.0 261.0 L 438.0 261.0 L 431.0 258.0 L 426.0 253.0 L 419.0 242.0 L 415.0 227.0 L 415.0 211.0 L 417.0 200.0 L 423.0 189.0 L 433.0 179.0 Z"/>
    <path fill="#f58a16" d="M 590.0 388.0 L 583.0 386.0 L 577.0 388.0 L 574.0 391.0 L 571.0 398.0 L 570.0 409.0 L 568.0 413.0 L 565.0 413.0 L 556.0 409.0 L 544.0 407.0 L 534.0 407.0 L 524.0 409.0 L 507.0 417.0 L 490.0 433.0 L 483.0 444.0 L 477.0 457.0 L 473.0 473.0 L 473.0 496.0 L 480.0 513.0 L 487.0 521.0 L 500.0 528.0 L 512.0 530.0 L 521.0 530.0 L 535.0 526.0 L 546.0 519.0 L 555.0 510.0 L 563.0 498.0 L 570.0 482.0 L 572.0 481.0 L 574.0 485.0 L 577.0 509.0 L 580.0 518.0 L 585.0 527.0 L 589.0 531.0 L 595.0 534.0 L 603.0 534.0 L 609.0 530.0 L 611.0 525.0 L 610.0 517.0 L 604.0 509.0 L 602.0 503.0 L 598.0 475.0 L 598.0 466.0 L 597.0 465.0 L 596.0 399.0 L 593.0 391.0 Z M 669.0 409.0 L 661.0 414.0 L 658.0 422.0 L 658.0 429.0 L 657.0 430.0 L 658.0 497.0 L 661.0 515.0 L 665.0 525.0 L 672.0 532.0 L 678.0 534.0 L 683.0 534.0 L 688.0 532.0 L 692.0 527.0 L 692.0 519.0 L 686.0 509.0 L 684.0 495.0 L 683.0 442.0 L 685.0 431.0 L 685.0 418.0 L 684.0 415.0 L 680.0 411.0 L 676.0 409.0 Z M 559.0 437.0 L 560.0 444.0 L 547.0 475.0 L 535.0 493.0 L 528.0 500.0 L 520.0 505.0 L 510.0 505.0 L 505.0 502.0 L 499.0 494.0 L 498.0 481.0 L 503.0 463.0 L 512.0 447.0 L 525.0 435.0 L 535.0 431.0 L 545.0 431.0 Z M 668.0 341.0 L 663.0 343.0 L 659.0 347.0 L 656.0 353.0 L 657.0 365.0 L 661.0 371.0 L 669.0 376.0 L 678.0 376.0 L 682.0 374.0 L 688.0 366.0 L 689.0 363.0 L 688.0 355.0 L 686.0 351.0 L 680.0 345.0 L 675.0 342.0 Z"/>
  </g>
</svg>
